<?xml version="1.0" encoding="UTF-8" standalone="no"?>
<!-- Created with Inkscape (http://www.inkscape.org/) -->

<svg
   xmlns:dc="http://purl.org/dc/elements/1.1/"
   xmlns:cc="http://creativecommons.org/ns#"
   xmlns:rdf="http://www.w3.org/1999/02/22-rdf-syntax-ns#"
   xmlns:svg="http://www.w3.org/2000/svg"
   xmlns="http://www.w3.org/2000/svg"
   xmlns:sodipodi="http://sodipodi.sourceforge.net/DTD/sodipodi-0.dtd"
   xmlns:inkscape="http://www.inkscape.org/namespaces/inkscape"
   version="1.1"
   id="svg5012"
   width="411.42856"
   height="97.285713"
   viewBox="0 0 411.42856 97.285713"
   sodipodi:docname="sparks_logo_banner_black.svg"
   inkscape:version="0.92.3 (2405546, 2018-03-11)">
  <metadata
     id="metadata5018">
    <rdf:RDF>
      <cc:Work
         rdf:about="">
        <dc:format>image/svg+xml</dc:format>
        <dc:type
           rdf:resource="http://purl.org/dc/dcmitype/StillImage" />
        <dc:title></dc:title>
      </cc:Work>
    </rdf:RDF>
  </metadata>
  <defs
     id="defs5016" />
  <sodipodi:namedview
     pagecolor="#ffffff"
     bordercolor="#666666"
     borderopacity="1"
     objecttolerance="10"
     gridtolerance="10"
     guidetolerance="10"
     inkscape:pageopacity="0"
     inkscape:pageshadow="2"
     inkscape:window-width="1920"
     inkscape:window-height="1020"
     id="namedview5014"
     showgrid="false"
     inkscape:pagecheckerboard="true"
     inkscape:zoom="1.725537"
     inkscape:cx="100.41662"
     inkscape:cy="-25.845766"
     inkscape:window-x="1920"
     inkscape:window-y="32"
     inkscape:window-maximized="1"
     inkscape:current-layer="svg5012" />
  <path
     style="fill:#000000;stroke-width:0.42857143"
     d="M 93.447266,0.41015625 V 49.052734 97.695312 h 1.285156 1.287109 V 49.052734 0.41015625 h -1.287109 z"
     id="path5714" />
  <path
     style="fill:#ff5555;stroke-width:0.42857143;fill-opacity:1"
     d="m 26.822266,0.83789062 c -0.16813,0 0.500765,0.91380998 1.484375,2.03124998 3.87032,4.396917 6.721485,12.4882594 7.140625,20.2558594 0.41735,7.734246 -1.112971,12.896329 -4.962891,16.742188 -2.71773,2.714867 -5.059381,3.732267 -9.488281,4.121093 C 15.758024,44.448147 11.456723,42.382353 9.3144531,38.378906 8.4947331,36.847007 8.375,35.957964 8.375,31.375 c 0,-2.8875 -0.059766,-5.25 -0.1347656,-5.25 -0.40933,0 -4.0466625,8.591852 -5.3515625,12.642578 -2.47439006,7.68111 -3.07415002,11.499072 -3.03125002,19.285156 0.03066,5.558812 0.21013249,7.48913 0.9453125,10.199219 C 3.8703744,79.560136 13.388107,88.54725 29.091797,94.962891 c 2.51373,1.026973 4.792883,1.868993 5.064453,1.871093 0.35323,0.0028 0.312498,-0.57496 -0.138672,-2.03125 -0.34688,-1.119643 -0.738864,-3.868135 -0.871094,-6.107422 -0.19934,-3.375535 -0.07959,-4.65429 0.697266,-7.484374 1.22317,-4.455947 2.627674,-7.007339 7.490234,-13.603516 C 49.400774,56.66463 53.166203,46.817023 53.158203,36.683594 53.147733,23.02165 44.786769,10.815835 29.537109,2.1992188 28.211989,1.4504767 26.990396,0.83789062 26.822266,0.83789062 Z"
     id="path5712" />
  <path
     style="fill:#000000;stroke-width:0.42857143"
     d="m 141.88086,18.425781 c -6.21457,0.04109 -12.28144,2.024683 -15.9082,5.646485 -2.91979,2.915783 -3.9274,5.842363 -3.73047,10.83789 0.18597,4.717641 0.97901,6.534793 3.8457,8.800782 2.61601,2.067836 5.15543,3.018094 14.50195,5.429687 11.55513,2.98146 14.83238,4.93667 15.78125,9.414063 0.45231,2.13434 0.16384,4.81847 -0.68945,6.404296 -0.85466,1.588367 -3.37018,3.474644 -5.73047,4.296875 -3.15238,1.09822 -11.88539,1.098646 -15.57617,0.002 -3.60122,-1.070074 -7.7069,-3.188745 -9.87109,-5.09375 l -1.83789,-1.617187 -1.36914,2.226563 L 119.92773,67 l 1.4375,1.195312 c 2.98511,2.481904 9.56162,5.426909 14.11524,6.320313 3.01772,0.592063 11.06444,0.505063 14.16601,-0.152344 5.46861,-1.159132 9.48725,-4.012422 11.54883,-8.201172 0.87788,-1.783689 1.03711,-2.73956 1.03711,-6.18164 0,-3.76014 -0.10133,-4.25081 -1.32812,-6.427735 -1.52168,-2.70021 -4.51411,-5.042262 -8.26953,-6.470703 -1.32088,-0.502419 -5.83231,-1.759939 -10.02539,-2.794922 -11.92739,-2.944056 -14.46932,-4.647272 -14.80469,-9.914062 -0.4635,-7.279244 4.20409,-10.984157 13.85742,-10.998047 5.50332,-0.0079 9.35268,1.117113 12.99023,3.794922 l 2.59571,1.910156 1.09961,-1.875 c 0.60474,-1.031899 1.09961,-2.065173 1.09961,-2.294922 0,-0.567496 -4.17242,-3.297028 -6.7168,-4.394531 -3.3386,-1.440087 -7.12087,-2.114496 -10.84961,-2.089844 z"
     id="path5710" />
  <path
     style="fill:#000000;stroke-width:0.42857143"
     d="m 389.98242,18.574219 c -2.98376,0.04272 -5.97428,0.404711 -8.00586,1.070312 -5.57484,1.826473 -9.61882,5.566651 -10.87109,10.054688 -0.87022,3.118801 -0.66375,7.979159 0.43555,10.25 2.02108,4.175005 5.61731,6.144586 16.12695,8.828125 11.09505,2.833015 14.07238,4.121398 16.0957,6.96289 1.07418,1.508439 1.55541,4.864763 1.06836,7.460938 -0.41826,2.229501 -2.84766,4.703761 -5.74023,5.847656 -2.09789,0.829638 -3.22382,0.960931 -8.2168,0.957031 -5.12091,-0.0038 -6.18173,-0.135878 -9.24609,-1.152343 -3.35865,-1.114084 -7.92905,-3.696429 -9.12696,-5.15625 -0.32351,-0.394235 -0.83636,-0.716797 -1.13867,-0.716797 -0.72127,0 -2.90018,3.733894 -2.5293,4.333984 0.46915,0.759107 5.8039,4.060675 8.11329,5.021485 2.06822,0.860468 5.7085,1.951503 7.92773,2.375 0.58929,0.112449 3.77227,0.15238 7.07227,0.08789 4.86324,-0.09504 6.48611,-0.292644 8.56835,-1.042969 5.25164,-1.892409 8.49226,-5.019078 9.8125,-9.464843 1.71897,-5.788418 0.14013,-11.15107 -4.28124,-14.53711 -2.68438,-2.055793 -6.18435,-3.350195 -14.74219,-5.451172 -8.17586,-2.0072 -10.20816,-2.719061 -12.32227,-4.314453 -2.01026,-1.517016 -2.67773,-3.102385 -2.67773,-6.359375 0,-6.875204 4.5979,-10.255561 13.92773,-10.238281 5.87871,0.01089 9.97442,1.314062 13.9082,4.429687 l 1.56446,1.240235 1.15625,-1.914063 c 0.63607,-1.053069 1.1582,-2.062361 1.1582,-2.24414 0,-0.977174 -6.02568,-4.259356 -10.07226,-5.486328 -2.00458,-0.607811 -4.98109,-0.884519 -7.96485,-0.841797 z"
     id="path5708" />
  <path
     style="fill:#000000;stroke-width:0.42857143"
     d="M 172.30469 18.792969 L 172.30469 46.673828 L 172.30469 74.552734 L 175.08984 74.552734 L 177.875 74.552734 L 177.875 64.292969 L 177.875 54.035156 L 188.69727 53.900391 C 199.3228 53.768931 199.56281 53.746924 201.89648 52.652344 C 215.15178 46.435084 215.19067 26.971727 201.96094 20.455078 L 199.11133 19.052734 L 185.70703 18.923828 L 172.30469 18.792969 z M 177.875 23.496094 L 187.83984 23.630859 L 197.80469 23.767578 L 200.15039 25.097656 C 202.86373 26.636659 204.9684 29.386871 205.94336 32.669922 C 206.81546 35.606579 206.75806 37.488872 205.69531 40.929688 C 204.53495 44.686492 201.44805 47.984968 198.36328 48.761719 C 197.12766 49.072853 192.7963 49.267578 187.11523 49.267578 L 177.875 49.267578 L 177.875 36.380859 L 177.875 23.496094 z "
     id="path5706" />
  <path
     style="fill:#000000;stroke-width:0.42857143"
     d="M 270.875 18.792969 L 270.875 46.673828 L 270.875 74.552734 L 273.66211 74.552734 L 276.44727 74.552734 L 276.44727 64.267578 L 276.44727 53.980469 L 284.69727 53.988281 L 292.94727 53.996094 L 299.42578 64.166016 L 305.90234 74.337891 L 308.96094 74.464844 C 310.64284 74.534104 312.01953 74.501198 312.01953 74.392578 C 312.01953 74.283961 309.13316 69.667591 305.60547 64.132812 C 302.07779 58.598036 299.13536 53.828971 299.06836 53.535156 C 299.00136 53.241336 299.55199 52.83619 300.29102 52.634766 C 302.43873 52.04941 305.64866 49.656745 307.39844 47.337891 C 314.11367 38.438693 310.90325 25.177478 300.875 20.384766 L 298.08984 19.052734 L 284.48242 18.923828 L 270.875 18.792969 z M 276.44727 23.496094 L 286.625 23.630859 C 296.10705 23.756789 296.92256 23.830843 298.51953 24.695312 C 300.88639 25.97653 303.21921 28.504691 304.38672 31.052734 C 305.87381 34.298253 305.78017 39.208683 304.16797 42.503906 C 302.68702 45.530844 299.81139 48.145083 297.25391 48.789062 C 296.14014 49.069514 291.44027 49.267578 285.90039 49.267578 L 276.44727 49.267578 L 276.44727 36.380859 L 276.44727 23.496094 z "
     id="path5704" />
  <path
     style="fill:#000000;stroke-width:0.42857143"
     d="M 234.99805 18.798828 L 234.12109 20.855469 C 232.88422 23.753932 212.0979 73.366685 211.84766 74.017578 C 211.69519 74.414183 212.40446 74.552081 214.58008 74.550781 L 217.51953 74.548828 L 221.10547 65.765625 L 224.69141 56.980469 L 237.01562 56.980469 C 246.36569 56.980469 249.44376 57.111202 249.76367 57.517578 C 249.99563 57.812221 251.707 61.763878 253.56641 66.298828 L 256.94727 74.544922 L 259.83594 74.548828 L 262.72656 74.552734 L 262.00391 72.730469 C 261.60616 71.728683 256.42023 59.241183 250.48047 44.980469 L 239.67969 19.052734 L 237.33984 18.925781 L 234.99805 18.798828 z M 237.2793 25.390625 C 237.3256 25.440405 239.86273 31.603962 242.91797 39.087891 L 248.47266 52.695312 L 237.16797 52.695312 L 225.86523 52.695312 L 226.44141 51.302734 C 226.75899 50.536663 229.30912 44.373104 232.10742 37.605469 C 234.90572 30.837835 237.233 25.340845 237.2793 25.390625 z "
     id="path5702" />
  <path
     style="fill:#000000;stroke-width:0.42857143"
     d="m 322.30469,18.837891 v 27.857421 27.857422 h 2.78515 2.78516 v -8.685546 -8.685547 l 5.2793,-5.265625 5.27929,-5.265625 10.62891,13.951171 10.63086,13.951172 h 3 2.99805 l -1.21289,-1.607422 c -0.66791,-0.883928 -6.00535,-7.845449 -11.85938,-15.470703 -5.85403,-7.625254 -10.58642,-14.031553 -10.51562,-14.236328 0.0707,-0.204772 4.64313,-5.220662 10.16015,-11.146484 5.51703,-5.925821 10.50065,-11.332021 11.07422,-12.013672 l 1.04297,-1.240234 -2.93164,0.002 -2.92969,0.002 -15.21484,16.082031 -15.21485,16.082031 -0.11132,-16.083984 -0.11329,-16.083984 h -2.77929 z"
     id="path5700" />
  <path
     style="fill:#000000;stroke-width:0.42857143"
     d="m 57.447266,37.957031 v 3.054688 c 0,7.488393 -4.453175,20.224292 -9.265625,26.498047 -4.52014,5.892689 -5.773462,7.729357 -7.388672,10.833984 -1.77643,3.414531 -3.041135,7.671344 -3.052735,10.267578 -0.0035,0.77847 0.297832,2.752734 0.669922,4.388672 l 0.675782,2.974609 3.501953,-2.707031 c 1.92613,-1.489182 5.701562,-4.235433 8.388671,-6.103516 5.70468,-3.965889 9.228849,-7.32159 11.324219,-10.779296 5.91923,-9.767712 4.568413,-23.572582 -3.560547,-36.390625 z"
     id="path5665" />
</svg>
